<?xml version="1.0" encoding="utf-8"?>
<!-- Generator: Adobe Illustrator 16.0.3, SVG Export Plug-In . SVG Version: 6.00 Build 0)  -->
<!DOCTYPE svg PUBLIC "-//W3C//DTD SVG 1.1//EN" "http://www.w3.org/Graphics/SVG/1.1/DTD/svg11.dtd">
<svg version="1.1" id="Capa_1" xmlns="http://www.w3.org/2000/svg" xmlns:xlink="http://www.w3.org/1999/xlink" x="0px" y="0px"
	 width="1053.49px" height="1027.46px" viewBox="0 0 1053.49 1027.46" enable-background="new 0 0 1053.49 1027.46"
	 xml:space="preserve">
<rect x="274.332" y="817.277" transform="matrix(0.8041 0.5945 -0.5945 0.8041 548.528 -11.9097)" width="36.003" height="18.001"/>
<polygon points="242.185,742.396 241.956,742.118 164.413,788.681 146.913,767.414 244.207,687.349 256.103,701.804 
	186.329,759.223 186.558,759.5 264.795,712.366 276.69,726.822 217.04,794.56 217.269,794.838 286.069,738.22 297.051,751.563 
	199.755,831.629 182.255,810.362 "/>
<g>
	<defs>
		<rect id="SVGID_1_" y="0.005" width="1053.491" height="1027.455"/>
	</defs>
	<clipPath id="SVGID_2_">
		<use xlink:href="#SVGID_1_"  overflow="visible"/>
	</clipPath>
	<path clip-path="url(#SVGID_2_)" d="M110.801,700.015l89.146-38.744c8.254-3.587,9.647-8.51,7.136-14.288
		c-2.511-5.777-7.061-8.118-15.315-4.53l-89.146,38.742l-7.462-17.169l87.991-38.239c18.489-8.036,33.072-3.384,40.821,14.445
		s1.201,31.665-17.288,39.701l-87.99,38.241L110.801,700.015z"/>
	<polygon clip-path="url(#SVGID_2_)" points="111.265,588.931 111.322,589.286 201.449,574.905 204.257,592.504 79.822,612.36 
		75.907,587.828 147.242,556.211 147.185,555.855 72.702,567.741 69.921,550.32 194.356,530.464 197.562,550.551 	"/>
	<path clip-path="url(#SVGID_2_)" d="M68.38,495.675l2.886-31.188c1.824-19.718,13.654-28.385,33.73-26.527l63.452,5.871
		c20.076,1.858,30.114,12.549,28.289,32.266l-2.885,31.188L68.38,495.675z M88.129,477.617l89.623,8.293l1.028-11.113
		c0.58-6.274-2.297-10.336-11.26-11.166l-65.245-6.037c-8.962-0.83-12.537,2.636-13.118,8.91L88.129,477.617z"/>
	
		<rect x="138.306" y="334.056" transform="matrix(-0.2828 0.9592 -0.9592 -0.2828 570.9729 367.193)" clip-path="url(#SVGID_2_)" width="19.802" height="126.011"/>
	<path clip-path="url(#SVGID_2_)" d="M248.696,324.776l-9.253,17.71l-21.846-7.555l-11.253,21.538l18.678,13.619l-8.419,16.114
		l-102.346-76.22l13.421-25.687L248.696,324.776z M192.354,346.317l8.836-16.912l-60.814-21.213l-0.167,0.319L192.354,346.317z"/>
	<polygon clip-path="url(#SVGID_2_)" points="164.872,227.742 177.803,212.746 259.596,283.279 280.873,258.604 294.505,270.36 
		260.297,310.029 	"/>
	
		<rect x="267.821" y="139.7" transform="matrix(-0.7754 0.6314 -0.6314 -0.7754 621.0686 184.5225)" clip-path="url(#SVGID_2_)" width="19.801" height="126.007"/>
	<polygon clip-path="url(#SVGID_2_)" points="279.639,122.404 333.267,92.91 341.942,108.683 323.803,118.659 375.85,213.297 
		358.5,222.839 306.452,128.201 288.313,138.177 	"/>
	<path clip-path="url(#SVGID_2_)" d="M383.808,104.848c-5.367-19.433,1.804-33.364,20.543-38.539
		c18.739-5.174,32.042,3.103,37.408,22.536l17.44,63.157c5.366,19.433-1.804,33.364-20.543,38.539
		c-18.738,5.174-32.042-3.103-37.408-22.536L383.808,104.848z M420.669,163.949c2.396,8.675,7.124,10.918,13.196,9.241
		c6.073-1.677,8.98-6.028,6.584-14.703l-18.111-65.586c-2.396-8.675-7.123-10.918-13.196-9.241
		c-6.073,1.677-8.979,6.028-6.584,14.703L420.669,163.949z"/>
	<polygon clip-path="url(#SVGID_2_)" points="595.492,55.443 593.963,73.019 548.646,159.783 586.127,163.045 584.565,180.979 
		526.82,175.952 528.349,158.378 573.667,71.613 537.979,68.506 539.54,50.573 	"/>
	<path clip-path="url(#SVGID_2_)" d="M634.047,93.966c6.403-19.117,20.133-26.668,38.567-20.493
		c18.434,6.175,24.845,20.472,18.44,39.589l-20.811,62.129c-6.404,19.117-20.134,26.667-38.567,20.492
		c-18.434-6.174-24.845-20.472-18.441-39.588L634.047,93.966z M631.61,163.579c-2.858,8.534-0.19,13.035,5.783,15.036
		c5.975,2.001,10.816,0.016,13.675-8.518l21.611-64.519c2.859-8.534,0.19-13.035-5.784-15.036
		c-5.974-2.002-10.814-0.016-13.674,8.518L631.61,163.579z"/>
	<polygon clip-path="url(#SVGID_2_)" points="744.955,146.31 744.652,146.115 695.11,222.757 680.145,213.083 748.546,107.265 
		769.408,120.75 745.244,194.936 745.546,195.132 786.49,131.792 801.304,141.369 732.902,247.186 715.82,236.144 	"/>
	<path clip-path="url(#SVGID_2_)" d="M793.945,309.396l-13.555-14.682l14.477-18.021l-16.486-17.855l-19.117,12.995l-12.334-13.358
		l106.262-70.668l19.661,21.294L793.945,309.396z M792.656,249.087l12.944,14.02L846.072,213l-0.245-0.265L792.656,249.087z"/>
	<polygon clip-path="url(#SVGID_2_)" points="896.581,351.948 906.338,375.574 889.699,382.445 879.942,358.819 831.857,378.676 
		824.3,360.374 940.768,312.277 960.762,360.694 944.124,367.565 931.687,337.45 	"/>
	<path clip-path="url(#SVGID_2_)" d="M976.891,425.656l-95.951,15.54c-8.885,1.439-11.449,5.866-10.442,12.086
		c1.007,6.219,4.839,9.61,13.723,8.171l95.952-15.541l2.993,18.48l-94.708,15.339c-19.901,3.223-32.885-4.886-35.993-24.076
		c-3.107-19.19,6.653-30.983,26.554-34.206l94.708-15.339L976.891,425.656z M1008.168,452.137l-22.659-14.93l-2.13-13.149
		l21.681,8.889L1008.168,452.137z"/>
	<polygon clip-path="url(#SVGID_2_)" points="985.357,510.599 981.083,571.65 963.127,570.394 964.572,549.743 856.833,542.199 
		858.216,522.447 965.956,529.991 967.4,509.342 	"/>
	<path clip-path="url(#SVGID_2_)" d="M926.649,666.199l-4.292-1.353c-12.362-3.894-18.898-10.104-20.197-19.761l-0.344-0.108
		c-7.14,8.887-17.311,10.023-30.017,6.021l-9.786-3.082c-18.543-5.841-25.419-18.764-19.47-37.65l9.354-29.702l120.185,37.854
		l-8.977,28.501C956.941,666.492,945.192,672.039,926.649,666.199 M900.033,616.485l-36.913-11.627l-3.407,10.816
		c-2.001,6.353-0.164,10.705,8.764,13.519l10.474,3.298c11.16,3.515,15.729,0.991,18.434-7.593L900.033,616.485z M948.966,631.897
		l-31.763-10.005l-2.325,7.383c-2.218,7.04-0.479,12.306,9.135,15.334l6.697,2.108c8.584,2.703,13.28,0.975,15.39-5.721
		L948.966,631.897z"/>
	<path clip-path="url(#SVGID_2_)" d="M906.838,706.627c17.18,10.552,21.438,25.63,11.264,42.195
		c-10.176,16.565-25.551,19.585-42.729,9.034l-55.831-34.291c-17.179-10.552-21.437-25.63-11.263-42.196
		c10.175-16.564,25.55-19.585,42.729-9.034L906.838,706.627z M839.571,688.548c-7.669-4.71-12.656-3.126-15.953,2.242
		s-2.456,10.533,5.213,15.243l57.979,35.611c7.67,4.71,12.656,3.126,15.953-2.242c3.298-5.369,2.456-10.533-5.214-15.244
		L839.571,688.548z"/>
	<polygon clip-path="url(#SVGID_2_)" points="869.147,813.295 855.253,827.402 778.304,751.614 755.44,774.828 742.616,762.196 
		779.373,724.876 	"/>
	
		<rect x="736.882" y="821.819" transform="matrix(0.8155 -0.5787 0.5787 0.8155 -341.5521 590.1143)" clip-path="url(#SVGID_2_)" width="36.003" height="18.001"/>
</g>
<g>
	<defs>
		<path id="SVGID_3_" d="M606.742,424.072c-10.617,9.203-20.69,18.933-29.608,29.743c-13.01,15.764-24.33,32.538-32.352,51.299
			c-1.57,3.666-1.673,6.89,1.374,10.147c3.505,3.744,6.588,7.876,9.706,11.938c25.893,33.722,38.111,72.396,41.687,113.735
			c2.12,24.505,0.209,49.002-5.895,73.063c-6.603,26.005-16.162,50.822-30.406,73.79c-2.489,4.005-2.43,7.188,1.102,10.089
			c2.471,2.018,5.217,0.153,7.742-0.319c32.422-6.014,63.737-15.377,93.542-29.343c3.101-1.45,5.133-3.497,6.611-6.536
			c4.632-9.493,9.632-18.819,14.282-28.312c15.781-32.205,24.514-66.052,24.477-101.875c0.202-11.427-1.402-22.679-3.01-33.964
			c-4.318-30.289-14.12-58.949-27.28-86.518c-14.86-31.14-34.031-59.661-56.953-85.776c-2.95-3.364-5.207-5.042-7.635-5.042
			C611.992,420.192,609.726,421.487,606.742,424.072"/>
	</defs>
	<clipPath id="SVGID_4_">
		<use xlink:href="#SVGID_3_"  overflow="visible"/>
	</clipPath>
	
		<linearGradient id="SVGID_5_" gradientUnits="userSpaceOnUse" x1="0" y1="1027.5693" x2="1" y2="1027.5693" gradientTransform="matrix(72.2584 183.714 183.714 -72.2584 -188202.2188 74734.5938)">
		<stop  offset="0" style="stop-color:#00A0C6"/>
		<stop  offset="0.5831" style="stop-color:#1063A0"/>
		<stop  offset="1" style="stop-color:#163E89"/>
	</linearGradient>
	<polygon clip-path="url(#SVGID_4_)" fill="url(#SVGID_5_)" points="686.953,363.614 838.542,749.022 565.361,856.47 
		413.773,471.062 	"/>
</g>
<g>
	<defs>
		<path id="SVGID_6_" d="M258.973,402.926c-2.73,0.165-5.386-0.503-6.633,3.091c-3.919,11.288-7.688,22.608-10.728,34.144
			c-5.451,20.692-9.934,41.557-11.207,62.949c-0.134,2.27-0.127,4.459,1.263,6.576c16.665,25.418,33.557,50.589,56.705,71.179
			c19.621,17.443,41.593,31.256,65.879,41.357c40.521,16.843,83.225,23.67,131.343,24.647c8.275-0.499,20.813-1.334,33.363-2.006
			c13.113-0.701,26.026-2.797,38.909-5.103c5.48-0.976,7.338-3.681,6.348-8.953c-6.546-34.931-19.493-67.277-41.235-96.031
			c-2.587-3.424-5.933-4.263-9.972-3.575c-25.914,4.406-51.669,4.275-77.591-0.819c-44.468-8.739-83.461-27.804-116.905-57.475
			c-22.085-19.595-40.641-42.083-54.88-67.806c-0.895-1.62-1.229-2.22-3.448-2.22C259.831,402.882,259.431,402.897,258.973,402.926"
			/>
	</defs>
	<clipPath id="SVGID_7_">
		<use xlink:href="#SVGID_6_"  overflow="visible"/>
	</clipPath>
	
		<linearGradient id="SVGID_8_" gradientUnits="userSpaceOnUse" x1="0" y1="1027.3828" x2="1" y2="1027.3828" gradientTransform="matrix(-285.4014 -173.7295 -173.7295 285.4014 179002.4219 -292620.0625)">
		<stop  offset="0" style="stop-color:#00A0C6"/>
		<stop  offset="0.5831" style="stop-color:#1063A0"/>
		<stop  offset="1" style="stop-color:#163E89"/>
	</linearGradient>
	<polygon clip-path="url(#SVGID_7_)" fill="url(#SVGID_8_)" points="474.652,795.63 121.701,580.781 320.824,253.664 
		673.775,468.512 	"/>
</g>
<g>
	<defs>
		<path id="SVGID_9_" d="M673.555,267.831c-18.718,1.869-37.586,2.059-56.201,5.219c-25.521,4.336-49.655,12.433-72.358,24.515
			c-32.042,17.049-58.396,40.725-81.29,68.076c-28.679,34.269-49.589,72.852-64.666,114.497c-1.514,4.178,0.09,7.429,4.127,8.81
			c35.013,11.968,70.826,17.725,107.979,12.822c3.472-0.458,5.569-2.032,6.668-5.154c11.031-31.221,29.263-57.761,53.57-80.75
			c25.191-23.827,54.021-41.624,86.923-53.285c28.068-9.951,57.108-14.873,86.908-15.807c3.06,0,6.134-0.195,9.174,0.047
			c3.011,0.24,4.532-1.018,5.759-3.556c1.309-2.694,0.688-4.53-1.298-6.567c-4.213-4.317-8.213-8.822-12.304-13.246
			c-18.357-19.875-39.105-37.09-61.35-52.68c-3.031-2.121-6.147-3.047-9.574-3.047C674.945,267.725,674.257,267.761,673.555,267.831
			"/>
	</defs>
	<clipPath id="SVGID_10_">
		<use xlink:href="#SVGID_9_"  overflow="visible"/>
	</clipPath>
	
		<linearGradient id="SVGID_11_" gradientUnits="userSpaceOnUse" x1="0" y1="1027.4189" x2="1" y2="1027.4189" gradientTransform="matrix(313.0244 -182.5343 -182.5343 -313.0244 187935.4375 322101.2813)">
		<stop  offset="0" style="stop-color:#00A0C6"/>
		<stop  offset="0.5831" style="stop-color:#1063A0"/>
		<stop  offset="1" style="stop-color:#163E89"/>
	</linearGradient>
	<polygon clip-path="url(#SVGID_10_)" fill="url(#SVGID_11_)" points="293.544,328.359 669.105,109.357 865.436,446.039 
		489.874,665.04 	"/>
</g>
<g>
	<defs>
		<path id="SVGID_12_" d="M430.291,256.768c-26.998,18.323-50.273,40.614-71.26,65.228c-21.985,25.779-39.51,54.138-52.294,85.3
			c-1.731,4.213-0.975,7.407,1.69,10.612c15.966,19.173,34.692,35.436,55.308,49.684c3.818,2.636,8.165,1.611,10.335-2.455
			c0.912-1.696,1.564-3.527,2.348-5.296c15.567-35.363,33.693-69.325,57.152-100.417c30.577-40.52,68.089-72.89,115.223-94.154
			c20.158-9.091,41.18-15.422,62.944-19.459c2.888-0.536,3.637-1.801,3.353-4.189c-0.241-2.019,1.177-4.427-2.392-5.489
			c-26.749-8.012-54.108-12.191-83.814-12.835C493.343,223.571,460.41,236.322,430.291,256.768"/>
	</defs>
	<clipPath id="SVGID_13_">
		<use xlink:href="#SVGID_12_"  overflow="visible"/>
	</clipPath>
	
		<linearGradient id="SVGID_14_" gradientUnits="userSpaceOnUse" x1="0" y1="1027.3662" x2="1" y2="1027.3662" gradientTransform="matrix(223.5115 -213.8887 -213.8887 -223.5115 220075.5938 230096.5)">
		<stop  offset="0" style="stop-color:#00A0C6"/>
		<stop  offset="0.5831" style="stop-color:#1063A0"/>
		<stop  offset="1" style="stop-color:#163E89"/>
	</linearGradient>
	<polygon clip-path="url(#SVGID_13_)" fill="url(#SVGID_14_)" points="181.661,341.333 467.481,67.818 739.612,352.193 
		453.792,625.708 	"/>
</g>
<g>
	<defs>
		<path id="SVGID_15_" d="M721.35,377.121c-25.469,3.541-49.506,11.521-72.776,21.891c-5.184,2.313-5.994,6.548-2.449,11.101
			c17.724,22.776,34.257,46.341,48.182,71.529c11.181,20.218,20.938,41.08,27.998,63.092c6.34,19.762,10.668,39.813,13.137,60.428
			c2.805,23.392,1.471,46.454-2.173,69.535c-2.377,15.083-6.393,29.785-11.563,44.157c-1.305,3.631,0.969,4.549,3.1,6.157
			c2.42,1.839,3.805,0.401,5.513-1.077c19.11-16.547,34.704-35.947,48.309-56.898c17.628-27.146,24.866-57.105,24.521-91.518
			c0.68-11.582-1.489-25.476-4.027-39.236c-7.122-38.656-19.27-75.71-38.525-110.397c-8.843-15.924-19.204-30.845-30.415-45.246
			c-1.866-2.399-4.042-3.647-7.06-3.647C722.559,376.992,721.971,377.035,721.35,377.121"/>
	</defs>
	<clipPath id="SVGID_16_">
		<use xlink:href="#SVGID_15_"  overflow="visible"/>
	</clipPath>
	
		<linearGradient id="SVGID_17_" gradientUnits="userSpaceOnUse" x1="0" y1="1027.4199" x2="1" y2="1027.4199" gradientTransform="matrix(103.4712 328.2206 328.2206 -103.4712 -336554.2813 106678.8672)">
		<stop  offset="0" style="stop-color:#00A0C6"/>
		<stop  offset="0.5831" style="stop-color:#1063A0"/>
		<stop  offset="1" style="stop-color:#163E89"/>
	</linearGradient>
	<polygon clip-path="url(#SVGID_16_)" fill="url(#SVGID_17_)" points="789.25,330.754 904.148,695.225 657.155,773.089 
		542.257,408.619 	"/>
</g>
<g>
	<defs>
		<path id="SVGID_18_" d="M239.044,575.295c-2.433,1.586-4.72,0.906-3.309,5.914c0.803,2.845,1.549,5.738,2.274,8.624
			c6.269,25.024,16.027,48.791,29.8,70.677c18.301,29.086,44.899,49.233,76.384,63.558c25.503,11.603,52.158,19.567,79.636,25.424
			c23.452,4.995,47.16,6.786,71.918,7.898c14.137-0.84,29.217-1.34,44.201-3.129c4.369-0.521,6.771-2.939,8.393-7.036
			c9.109-23.029,13.938-46.987,16.868-71.388c0.526-4.42-3.394-8.264-7.961-7.578c-18.664,2.786-37.486,3.936-56.294,4.766
			c-27.163,1.192-54.302-0.189-81.151-4.272c-31.187-4.753-61.188-13.419-89.622-27.222c-32.822-15.935-60.942-37.552-84.949-64.391
			c-1.942-2.207-2.312-3.388-3.204-3.388C241.447,573.752,240.645,574.252,239.044,575.295"/>
	</defs>
	<clipPath id="SVGID_19_">
		<use xlink:href="#SVGID_18_"  overflow="visible"/>
	</clipPath>
	
		<linearGradient id="SVGID_20_" gradientUnits="userSpaceOnUse" x1="0" y1="1027.4385" x2="1" y2="1027.4385" gradientTransform="matrix(-325.23 -138.8452 -138.8452 325.23 143201.4688 -333425.4375)">
		<stop  offset="0" style="stop-color:#00A0C6"/>
		<stop  offset="0.5831" style="stop-color:#1063A0"/>
		<stop  offset="1" style="stop-color:#163E89"/>
	</linearGradient>
	<polygon clip-path="url(#SVGID_19_)" fill="url(#SVGID_20_)" points="514.645,877.063 168.012,729.08 285.414,454.079 
		632.047,602.062 	"/>
</g>
<g>
	<defs>
		<path id="SVGID_21_" d="M414.131,779.089c-2.465,5.886-1.696,4.808,2.53,6.486c29.142,11.079,59.334,17.501,87.135,19.349
			c14.267,0.163,14.257,0.163,19.765-9.142c0.814-1.359,1.746-2.661,2.538-4.032c2.199-3.779-0.647-8.685-5.186-8.94
			c-0.762-0.041-1.529-0.016-2.296,0.01c-0.494,0.016-0.989,0.031-1.482,0.029c-5.066-0.021-10.13,0.022-15.194,0.067
			c-13.625,0.121-27.25,0.242-40.876-0.947c-14.485-1.254-28.84-3.25-43.102-5.878c-0.922-0.169-1.475-0.313-1.853-0.313
			C415.286,775.778,415.294,776.465,414.131,779.089"/>
	</defs>
	<clipPath id="SVGID_22_">
		<use xlink:href="#SVGID_21_"  overflow="visible"/>
	</clipPath>
	
		<linearGradient id="SVGID_23_" gradientUnits="userSpaceOnUse" x1="-9.765625e-004" y1="1027.5088" x2="0.999" y2="1027.5088" gradientTransform="matrix(-100.0595 -42.2312 -42.2312 100.0595 43917.5742 -101998.625)">
		<stop  offset="0" style="stop-color:#00A0C6"/>
		<stop  offset="0.5831" style="stop-color:#1063A0"/>
		<stop  offset="1" style="stop-color:#163E89"/>
	</linearGradient>
	<polygon clip-path="url(#SVGID_22_)" fill="url(#SVGID_23_)" points="510.663,846.87 401.166,800.655 429.301,733.995 
		538.798,780.21 	"/>
</g>
<g>
	<defs>
		<path id="SVGID_24_" d="M340.111,287.195c-4.64,3.881-9.288,7.754-13.833,11.731c-20.065,17.548-37.248,37.458-51.391,59.838
			c-1.862,2.949-1.911,6.015-0.338,8.997c1.558,2.956,3.564,5.687,5.108,8.654c1.224,2.344,2.835,3.535,5.654,2.976
			c3.167,0.724,4.644-0.968,6.021-3.66c5.533-10.811,11.53-21.386,18.029-31.69c11.131-17.648,23.517-34.403,37.527-49.982
			c2.258-2.514,1.87-3.201-0.779-6.085c-1.483-1.615-2.429-2.276-3.309-2.276C341.975,285.698,341.208,286.277,340.111,287.195"/>
	</defs>
	<clipPath id="SVGID_25_">
		<use xlink:href="#SVGID_24_"  overflow="visible"/>
	</clipPath>
	
		<linearGradient id="SVGID_26_" gradientUnits="userSpaceOnUse" x1="0" y1="1027.4717" x2="1" y2="1027.4717" gradientTransform="matrix(51.0782 -54.8336 -54.8336 -51.0782 56625.1133 52842.1406)">
		<stop  offset="0" style="stop-color:#00A0C6"/>
		<stop  offset="0.5831" style="stop-color:#1063A0"/>
		<stop  offset="1" style="stop-color:#163E89"/>
	</linearGradient>
	<polygon clip-path="url(#SVGID_25_)" fill="url(#SVGID_26_)" points="225.886,336.25 308.364,247.708 396.236,329.563 
		313.758,418.104 	"/>
</g>
<g>
	<defs>
		<path id="SVGID_27_" d="M776.895,373.313c-1.793,0-2.337-0.004-2.873,0c-0.415,0.004-0.828-0.004-1.239-0.011
			c-2.876-0.052-5.569-0.103-7.434,3.433c-1.991,3.77,0.069,5.881,1.809,8.49c17.897,26.828,32.788,55.125,43.467,85.432
			c1.201,3.41,2.49,5.567,6.743,4.553c4.383-1.041,3.222-4.175,2.795-6.723c-5.009-29.907-14.217-58.472-28.105-85.675
			c-3.247-6.367-7.238-9.692-12.768-9.692C778.521,373.12,777.724,373.184,776.895,373.313"/>
	</defs>
	<clipPath id="SVGID_28_">
		<use xlink:href="#SVGID_27_"  overflow="visible"/>
	</clipPath>
	
		<linearGradient id="SVGID_29_" gradientUnits="userSpaceOnUse" x1="0" y1="1027.4092" x2="1" y2="1027.4092" gradientTransform="matrix(42.0609 91.5799 91.5799 -42.0609 -93319.3672 43590.8398)">
		<stop  offset="0" style="stop-color:#00A0C6"/>
		<stop  offset="0.5831" style="stop-color:#1063A0"/>
		<stop  offset="1" style="stop-color:#163E89"/>
	</linearGradient>
	<polygon clip-path="url(#SVGID_28_)" fill="url(#SVGID_29_)" points="811.578,350.973 860.854,458.264 773.528,498.371 
		724.252,391.08 	"/>
</g>
<g>
	<defs>
		<rect id="SVGID_30_" y="0.005" width="1053.491" height="1027.455"/>
	</defs>
	<clipPath id="SVGID_31_">
		<use xlink:href="#SVGID_30_"  overflow="visible"/>
	</clipPath>
	<polygon clip-path="url(#SVGID_31_)" points="431.535,917.059 431.864,917.104 455.331,837.066 480.489,840.544 464.574,955.645 
		447.473,953.28 458.887,870.737 458.558,870.691 434.977,951.552 417.876,949.188 415.976,865.976 415.647,865.931 
		404.393,947.323 388.608,945.141 404.523,830.04 429.681,833.52 	"/>
	<polygon clip-path="url(#SVGID_31_)" points="531.743,893.514 555.315,893.405 555.392,910.006 531.819,910.113 532.039,958.088 
		513.78,958.172 513.245,841.972 561.552,841.75 561.628,858.35 531.582,858.487 	"/>
	<path clip-path="url(#SVGID_31_)" d="M619.277,913.674l2.14,10.576c1.646,8.136,5.819,10.339,11.513,9.188
		c5.695-1.153,8.683-4.807,7.035-12.941l-5.07-25.057c-1.646-8.135-5.852-10.502-11.547-9.35c-5.694,1.152-8.647,4.969-7.002,13.104
		l0.692,3.417l-16.922,3.424l-10.114-66.716l47.184-9.549l3.293,16.27l-31.239,6.323l4.034,27.467l0.326-0.065
		c2.167-6.027,6.618-9.978,13.777-11.426c13.179-2.668,21.727,5.257,25.119,22.016l5.136,25.382
		c3.688,18.223-3.315,30.479-20.888,34.036c-17.572,3.556-28.791-5.014-32.479-23.236l-1.909-9.437L619.277,913.674z"/>
</g>
</svg>
