<?xml version="1.0" encoding="utf-8"?>
<!-- Generator: Adobe Illustrator 16.0.3, SVG Export Plug-In . SVG Version: 6.00 Build 0)  -->
<!DOCTYPE svg PUBLIC "-//W3C//DTD SVG 1.1//EN" "http://www.w3.org/Graphics/SVG/1.1/DTD/svg11.dtd">
<svg version="1.1" id="Capa_1" xmlns="http://www.w3.org/2000/svg" xmlns:xlink="http://www.w3.org/1999/xlink" x="0px" y="0px"
	 width="1053.491px" height="1027.455px" viewBox="0 0 1053.491 1027.455" enable-background="new 0 0 1053.491 1027.455"
	 xml:space="preserve">
<g>
	<g>
		<path d="M402.003,914.53l0.381,0.053l27.168-92.661l29.125,4.027l-18.425,133.251l-19.797-2.738l13.213-95.56l-0.381-0.052
			l-27.3,93.612l-19.797-2.737l-2.2-96.334l-0.381-0.053l-13.029,94.229l-18.274-2.527l18.425-133.252l29.125,4.027L402.003,914.53z
			"/>
		<path d="M518.014,887.271l27.289-0.125l0.088,19.217l-27.289,0.125l0.256,55.54l-21.14,0.097l-0.619-134.525l55.925-0.256
			l0.088,19.218l-34.784,0.159L518.014,887.271z"/>
		<path d="M639.385,952.439c-20.908,4.232-34.838-5.499-39.107-26.595l-2.097-10.36c-2.554-12.62-0.731-22.989,7.281-29.905
			l-0.076-0.376c-9.618-2.955-15.516-10.782-18.146-23.779l-0.839-4.144c-4.27-21.097,4.78-35.478,25.689-39.709
			c20.907-4.231,34.838,5.498,39.106,26.595l0.84,4.144c2.63,12.997,0.051,22.538-7.473,28.963l0.076,0.376
			c10.071,3.256,15.783,12.101,18.337,24.72l2.097,10.36C669.343,933.827,660.293,948.208,639.385,952.439z M608.76,861.187
			c2.135,10.548,7.719,12.947,14.5,11.575c6.593-1.334,10.992-5.754,8.857-16.303l-1.486-7.346
			c-2.402-11.867-8.136-14.04-14.729-12.706c-6.593,1.334-11.03,5.565-8.629,17.433L608.76,861.187z M635.572,933.603
			c6.594-1.334,10.843-5.527,8.668-17.244l-2.478-12.243c-2.097-10.359-7.345-14.004-14.691-12.518
			c-7.346,1.487-10.764,6.885-8.667,17.244l2.479,12.244C623.246,932.765,628.979,934.938,635.572,933.603z"/>
	</g>
	<g>
		<path d="M300.631,845.585l-27.372-20.505l10.253-13.689l27.371,20.505L300.631,845.585z"/>
		<path d="M239.235,742.3l-0.214-0.268l-74.444,42.936l-16.268-20.493l93.768-74.437l11.057,13.932l-67.242,53.381l0.212,0.269
			l75.114-43.469l11.059,13.929l-57.801,63.354l0.213,0.267l66.308-52.635l10.208,12.859l-93.768,74.437l-16.269-20.495
			L239.235,742.3z"/>
		<path d="M110.99,691.687l85.68-34.465c7.932-3.19,9.385-7.831,7.149-13.382c-2.232-5.555-6.494-7.897-14.427-4.705l-85.679,34.463
			l-6.637-16.501l84.569-34.015c17.769-7.151,31.498-2.349,38.391,14.787s0.312,30.105-17.458,37.254l-84.569,34.015L110.99,691.687
			z"/>
		<path d="M112.551,577.368l0.04,0.34l86.084-10.319l2.015,16.812L81.834,598.446l-2.809-23.433l68.885-27.375l-0.04-0.338
			l-71.145,8.524l-1.993-16.639l118.855-14.241l2.3,19.185L112.551,577.368z"/>
		<path d="M75.643,477.951l4.212-29.458c2.666-18.622,14.3-26.288,33.262-23.577l59.929,8.571
			c18.959,2.714,27.98,13.331,25.316,31.954l-4.213,29.456L75.643,477.951z M95.235,461.75l84.648,12.105l1.5-10.497
			c0.849-5.925-1.69-9.916-10.156-11.129l-61.622-8.811c-8.465-1.212-12.021,1.909-12.869,7.834L95.235,461.75z"/>
		<path d="M99.291,368.023l6.473-17.661l112.4,41.174l-6.473,17.665L99.291,368.023z"/>
		<path d="M262.667,310.67l-10.073,16.087l-20.133-8.77l-12.253,19.567l16.685,14.282l-9.165,14.639l-91.299-79.765l14.613-23.334
			L262.667,310.67z M207.711,326.905l9.619-15.367l-56.03-24.59l-0.181,0.292L207.711,326.905z"/>
		<path d="M196.656,205.458l13.511-13.086l71.379,73.696l22.231-21.532l11.896,12.283l-35.74,34.616L196.656,205.458z"/>
		<path d="M272.102,141.318l15.749-10.287l65.471,100.223l-15.75,10.29L272.102,141.318z"/>
		<path d="M331.231,106.242l53.93-21.714l6.388,15.863l-18.24,7.346l38.319,95.171l-17.449,7.025l-38.319-95.172l-18.24,7.343
			L331.231,106.242z"/>
		<path d="M440.345,99.439c-2.614-18.971,5.885-31.189,24.179-33.709c18.294-2.522,29.781,6.939,32.396,25.91l8.499,61.656
			c2.614,18.973-5.884,31.189-24.179,33.712c-18.294,2.521-29.781-6.945-32.396-25.912L440.345,99.439z M467.64,159.715
			c1.167,8.467,5.338,11.172,11.265,10.354c5.93-0.815,9.213-4.546,8.045-13.016l-8.825-64.03
			c-1.167-8.47-5.339-11.176-11.267-10.355c-5.928,0.816-9.21,4.548-8.043,13.018L467.64,159.715z"/>
		<path d="M613.41,70.565l18.267,4.486l-24.474,99.641l30.06,7.383l-4.079,16.609l-48.327-11.873L613.41,70.565z"/>
		<path d="M697.638,126.393c8.889-16.965,22.904-21.978,39.266-13.408c16.359,8.569,20.219,22.949,11.332,39.914l-28.885,55.142
			c-8.89,16.967-22.904,21.979-39.265,13.408c-16.361-8.568-20.221-22.947-11.333-39.912L697.638,126.393z M684.858,191.325
			c-3.966,7.572-2.142,12.199,3.161,14.975c5.304,2.778,10.144,1.647,14.11-5.928l29.998-57.264
			c3.966-7.571,2.143-12.198-3.161-14.974c-5.301-2.778-10.141-1.646-14.11,5.93L684.858,191.325z"/>
		<path d="M829.304,177.142c13.629,12.209,13.332,26.636,0.552,40.899l-2.51,2.804L814.1,208.978l3.308-3.693
			c5.706-6.369,5.328-11.069,0.868-15.064c-4.457-3.991-9.174-3.854-14.877,2.514c-5.819,6.494-7.353,13.846-5.372,30.085
			c2.477,20.813-0.449,31.511-9.578,41.699c-12.78,14.267-27.213,16.028-40.969,3.705c-13.757-12.324-13.587-26.864-0.807-41.13
			l4.906-5.477l13.247,11.869l-5.706,6.367c-5.705,6.367-4.954,11.17-0.5,15.164c4.459,3.996,9.316,4.211,15.02-2.155
			c5.82-6.497,7.356-13.851,5.372-30.088c-2.477-20.814,0.448-31.511,9.577-41.7C801.368,166.807,815.677,164.933,829.304,177.142z"
			/>
		<path d="M877.837,374.577l-14.283,6.997c-17.2,8.424-31.241,4.639-39.364-11.951c-8.125-16.585-2.509-30,14.69-38.425
			l55.902-27.38c17.202-8.423,31.243-4.639,39.367,11.949c8.124,16.586,2.506,30-14.695,38.426l-10.441,5.116l-7.822-15.974
			l11.519-5.641c7.678-3.761,8.939-8.569,6.31-13.943c-2.635-5.377-7.206-7.326-14.888-3.565l-58.051,28.432
			c-7.678,3.762-8.788,8.498-6.156,13.871c2.633,5.376,7.053,7.399,14.732,3.64l15.357-7.521L877.837,374.577z"/>
		<path d="M918.248,425.216l5.363,25.26l-16.73,3.552l-5.364-25.264l-34.295,7.282l6.749,31.788l-16.728,3.552l-10.659-50.189
			l117.108-24.866l10.655,50.188l-16.729,3.553l-6.751-31.786L918.248,425.216z"/>
		<path d="M978.454,499.047l0.305,18.808l-119.682,1.941l-0.305-18.81L978.454,499.047z"/>
		<path d="M937.651,624.788l-4.196-0.825c-12.081-2.375-18.905-7.556-21.146-16.537l-0.335-0.065
			c-5.81,9.139-15.293,11.281-27.711,8.838l-9.564-1.883c-18.12-3.567-25.971-15.045-22.338-33.503l5.713-29.028l117.455,23.116
			l-5.48,27.853C966.283,621.883,955.772,628.356,937.651,624.788z M907.297,580.644l-36.074-7.1l-2.083,10.572
			c-1.222,6.208,0.97,10.125,9.696,11.844l10.235,2.012c10.906,2.148,14.956-0.717,16.608-9.106L907.297,580.644z M955.118,590.056
			l-31.043-6.108l-1.42,7.217c-1.354,6.879,0.842,11.667,10.237,13.517l6.546,1.288c8.389,1.651,12.642-0.477,13.93-7.02
			L955.118,590.056z"/>
		<path d="M920.086,673.563c17.232,8.369,22.669,22.226,14.601,38.843c-8.071,16.618-22.326,20.912-39.558,12.542l-56.002-27.198
			c-17.23-8.367-22.668-22.229-14.599-38.845c8.07-16.613,22.326-20.909,39.558-12.544L920.086,673.563z M854.79,662.766
			c-7.694-3.737-12.262-1.771-14.876,3.611c-2.614,5.388-1.336,10.188,6.354,13.927l58.157,28.246
			c7.691,3.732,12.259,1.771,14.875-3.614c2.616-5.385,1.336-10.19-6.354-13.926L854.79,662.766z"/>
		<path d="M873.32,806.719c-11.795,13.989-26.226,14.125-40.867,1.777l-2.875-2.427l11.465-13.594l3.791,3.196
			c6.536,5.515,11.223,4.993,15.084,0.418c3.857-4.577,3.577-9.287-2.955-14.8c-6.669-5.62-14.062-6.932-30.236-4.466
			c-20.731,3.098-31.512,0.494-41.97-8.324c-14.643-12.349-16.834-26.726-4.929-40.845c11.909-14.119,26.447-14.384,41.09-2.037
			l5.619,4.741l-11.462,13.597l-6.539-5.513c-6.536-5.514-11.315-4.621-15.173-0.046c-3.858,4.577-3.93,9.438,2.606,14.948
			c6.666,5.623,14.062,6.936,30.232,4.469c20.732-3.098,31.513-0.493,41.973,8.324C882.813,778.485,885.116,792.73,873.32,806.719z"
			/>
		<path d="M783.524,822.553l-27.175,20.775l-10.388-13.586l27.174-20.776L783.524,822.553z"/>
	</g>
	<g>
		<linearGradient id="SVGID_1_" gradientUnits="userSpaceOnUse" x1="555.8877" y1="492.9478" x2="644.572" y2="718.4239">
			<stop  offset="0" style="stop-color:#CCE70B"/>
			<stop  offset="1" style="stop-color:#1C9531"/>
		</linearGradient>
		<path fill-rule="evenodd" clip-rule="evenodd" fill="url(#SVGID_1_)" d="M705.11,629.47c0.037,35.061-8.509,68.181-23.954,99.701
			c-4.551,9.288-9.445,18.416-13.978,27.707c-1.447,2.973-3.435,4.978-6.469,6.396c-29.169,13.669-59.815,22.833-91.543,28.717
			c-2.474,0.463-5.161,2.289-7.578,0.313c-3.456-2.84-3.514-5.954-1.078-9.875c13.939-22.477,23.294-46.762,29.754-72.212
			c5.977-23.546,7.846-47.521,5.772-71.5c-3.499-40.46-15.458-78.307-40.797-111.31c-3.052-3.972-6.068-8.018-9.5-11.679
			c-2.979-3.188-2.882-6.345-1.346-9.935c7.853-18.359,18.929-34.774,31.662-50.198c8.729-10.581,18.586-20.105,28.976-29.11
			c6.243-5.41,9.274-5.05,14.699,1.135c22.433,25.558,41.193,53.472,55.735,83.944c12.878,26.98,22.472,55.028,26.698,84.669
			C703.737,607.278,705.308,618.291,705.11,629.47z"/>
		<linearGradient id="SVGID_2_" gradientUnits="userSpaceOnUse" x1="236.6821" y1="525.1357" x2="563.6626" y2="525.1357">
			<stop  offset="0" style="stop-color:#1C9531"/>
			<stop  offset="0.6529" style="stop-color:#92CC18"/>
			<stop  offset="1" style="stop-color:#CCE70B"/>
		</linearGradient>
		<path fill-rule="evenodd" clip-rule="evenodd" fill="url(#SVGID_2_)" d="M486.475,644.523
			c-47.093-0.956-88.883-7.639-128.539-24.12c-23.765-9.888-45.268-23.404-64.47-40.478c-22.656-20.147-39.185-44.778-55.494-69.655
			c-1.36-2.073-1.368-4.215-1.234-6.435c1.245-20.936,5.632-41.354,10.967-61.606c2.976-11.29,6.664-22.369,10.5-33.414
			c1.218-3.517,3.816-2.86,6.49-3.024c3.266-0.205,3.545,0.292,4.559,2.128c13.936,25.174,32.094,47.183,53.707,66.358
			c32.729,29.038,70.89,47.695,114.408,56.247c25.368,4.985,50.571,5.115,75.933,0.803c3.953-0.675,7.229,0.148,9.76,3.499
			c21.275,28.138,33.946,59.796,40.354,93.979c0.969,5.16-0.849,7.806-6.213,8.761c-12.606,2.257-25.244,4.309-38.078,4.992
			C506.842,643.219,494.573,644.036,486.475,644.523z"/>
		<linearGradient id="SVGID_3_" gradientUnits="userSpaceOnUse" x1="391.6816" y1="482.4819" x2="698.0187" y2="303.8472">
			<stop  offset="0" style="stop-color:#CCE70B"/>
			<stop  offset="1" style="stop-color:#1C9531"/>
		</linearGradient>
		<path fill-rule="evenodd" clip-rule="evenodd" fill="url(#SVGID_3_)" d="M740.547,350.839
			c-29.163,0.913-57.584,5.73-85.052,15.468c-32.197,11.415-60.413,28.832-85.066,52.146c-23.787,22.5-41.63,48.472-52.425,79.025
			c-1.075,3.056-3.126,4.596-6.526,5.044c-36.358,4.797-71.407-0.836-105.672-12.549c-3.951-1.35-5.521-4.53-4.037-8.621
			c14.754-40.756,35.216-78.513,63.283-112.05c22.404-26.768,48.195-49.936,79.554-66.621c22.218-11.824,45.834-19.751,70.813-23.99
			c18.217-3.095,36.682-3.282,55-5.107c4.17-0.418,7.841,0.394,11.393,2.875c21.767,15.257,42.073,32.103,60.039,51.556
			c4.003,4.329,7.919,8.736,12.041,12.964c1.941,1.991,2.549,3.79,1.27,6.424c-1.201,2.484-2.692,3.714-5.637,3.48
			C746.55,350.648,743.542,350.839,740.547,350.839z"/>
		<linearGradient id="SVGID_4_" gradientUnits="userSpaceOnUse" x1="318.0776" y1="449.4209" x2="536.8146" y2="240.1011">
			<stop  offset="0" style="stop-color:#CCE70B"/>
			<stop  offset="1" style="stop-color:#1C9531"/>
		</linearGradient>
		<path fill-rule="evenodd" clip-rule="evenodd" fill="url(#SVGID_4_)" d="M528.837,230.002
			c29.074,0.628,55.847,4.717,82.026,12.558c3.49,1.042,2.104,3.396,2.338,5.372c0.28,2.338-0.456,3.578-3.28,4.102
			c-21.3,3.949-41.871,10.144-61.599,19.044c-46.13,20.808-82.838,52.488-112.76,92.141c-22.959,30.427-40.698,63.664-55.933,98.27
			c-0.768,1.734-1.405,3.523-2.298,5.185c-2.126,3.977-6.38,4.983-10.116,2.402c-20.174-13.945-38.5-29.859-54.123-48.622
			c-2.61-3.137-3.349-6.265-1.654-10.385c12.509-30.5,29.66-58.251,51.176-83.478c20.538-24.09,43.315-45.904,69.737-63.834
			C461.827,242.747,494.057,230.268,528.837,230.002z"/>
		<linearGradient id="SVGID_5_" gradientUnits="userSpaceOnUse" x1="675.8887" y1="370.0459" x2="777.149" y2="691.2536">
			<stop  offset="0" style="stop-color:#CCE70B"/>
			<stop  offset="1" style="stop-color:#1C9531"/>
		</linearGradient>
		<path fill-rule="evenodd" clip-rule="evenodd" fill="url(#SVGID_5_)" d="M797.24,574.697c0.339,33.678-6.745,62.997-23.996,89.563
			c-13.313,20.502-28.574,39.49-47.276,55.681c-1.673,1.447-3.025,2.854-5.396,1.055c-2.083-1.572-4.312-2.471-3.033-6.023
			c5.06-14.068,8.99-28.455,11.316-43.215c3.566-22.591,4.87-45.158,2.125-68.052c-2.414-20.174-6.65-39.798-12.854-59.136
			c-6.909-21.543-16.461-41.958-27.4-61.745c-13.627-24.649-29.808-47.712-47.153-70c-3.47-4.455-2.675-8.603,2.398-10.865
			c22.773-10.147,46.297-17.958,71.221-21.423c3.886-0.538,6.476,0.662,8.642,3.444c10.971,14.094,21.11,28.696,29.766,44.279
			c18.842,33.943,30.73,70.21,37.701,108.039C795.783,549.765,797.905,563.363,797.24,574.697z"/>
		<linearGradient id="SVGID_6_" gradientUnits="userSpaceOnUse" x1="543.3647" y1="731.1108" x2="225.0833" y2="595.2321">
			<stop  offset="0" style="stop-color:#CCE70B"/>
			<stop  offset="1" style="stop-color:#1C9531"/>
		</linearGradient>
		<path fill-rule="evenodd" clip-rule="evenodd" fill="url(#SVGID_6_)" d="M496.407,752.682c-24.227-1.089-47.43-2.842-70.38-7.729
			c-26.892-5.731-52.977-13.526-77.934-24.88c-30.812-14.022-56.844-33.737-74.753-62.202
			c-13.479-21.418-23.028-44.679-29.163-69.167c-0.709-2.824-1.44-5.657-2.227-8.442c-1.38-4.897,0.857-4.234,3.241-5.787
			c3.973-2.588,2.917-1.758,6.055,1.808c23.492,26.265,51.012,47.416,83.132,63.011c27.827,13.511,57.188,21.991,87.709,26.643
			c26.273,3.997,52.834,5.348,79.415,4.181c18.408-0.812,36.83-1.938,55.093-4.662c4.47-0.673,8.308,3.088,7.791,7.417
			c-2.868,23.877-7.592,47.326-16.507,69.86c-1.59,4.009-3.938,6.377-8.213,6.887C525.001,751.37,510.245,751.859,496.407,752.682z"
			/>
		<linearGradient id="SVGID_7_" gradientUnits="userSpaceOnUse" x1="526.6548" y1="802.7061" x2="428.733" y2="761.3771">
			<stop  offset="0" style="stop-color:#CCE70B"/>
			<stop  offset="1" style="stop-color:#1C9531"/>
		</linearGradient>
		<path fill-rule="evenodd" clip-rule="evenodd" fill="url(#SVGID_7_)" d="M504.287,799.199
			c-27.208-1.808-56.753-8.091-85.275-18.934c-4.135-1.645-4.885-0.587-2.474-6.348c1.658-3.745,0.88-3.457,3.746-2.934
			c13.96,2.57,28.009,4.521,42.183,5.752c18.294,1.594,36.584,0.78,54.872,0.86c1.235,0.006,2.472-0.104,3.698-0.038
			c4.443,0.25,7.227,5.049,5.076,8.751c-0.775,1.341-1.689,2.614-2.483,3.944C518.24,799.359,518.247,799.359,504.287,799.199z"/>
		<linearGradient id="SVGID_8_" gradientUnits="userSpaceOnUse" x1="290.9619" y1="365.0425" x2="340.9485" y2="311.3808">
			<stop  offset="0" style="stop-color:#CCE70B"/>
			<stop  offset="1" style="stop-color:#1C9531"/>
		</linearGradient>
		<path fill-rule="evenodd" clip-rule="evenodd" fill="url(#SVGID_8_)" d="M290.469,382.758c-2.759,0.549-4.336-0.62-5.533-2.911
			c-1.51-2.903-3.475-5.576-4.998-8.47c-1.54-2.917-1.492-5.918,0.331-8.806c13.84-21.902,30.655-41.385,50.292-58.561
			c4.449-3.891,8.997-7.681,13.536-11.481c2.222-1.851,3.061-2.293,5.871,0.765c2.592,2.824,2.971,3.495,0.762,5.954
			c-13.71,15.249-25.831,31.645-36.727,48.916c-6.356,10.084-12.228,20.433-17.641,31.013
			C295.013,381.812,293.57,383.466,290.469,382.758z"/>
		<linearGradient id="SVGID_9_" gradientUnits="userSpaceOnUse" x1="770.0005" y1="378.4546" x2="811.1624" y2="468.077">
			<stop  offset="0" style="stop-color:#CCE70B"/>
			<stop  offset="1" style="stop-color:#1C9531"/>
		</linearGradient>
		<path fill-rule="evenodd" clip-rule="evenodd" fill="url(#SVGID_9_)" d="M771.55,376.812c6.655-1.036,11.22,2.201,14.838,9.294
			c13.594,26.623,22.604,54.576,27.506,83.847c0.417,2.493,1.552,5.557-2.737,6.579c-4.162,0.992-5.423-1.118-6.598-4.457
			c-10.45-29.657-25.023-57.353-42.539-83.606c-1.699-2.551-3.719-4.619-1.769-8.308c2.084-3.954,5.228-3.327,8.488-3.349
			C769.262,376.806,769.795,376.812,771.55,376.812z"/>
	</g>
</g>
</svg>
